<svg width="63" height="29" viewBox="0 0 63 29" fill="none" xmlns="http://www.w3.org/2000/svg">
<path fill-rule="evenodd" clip-rule="evenodd" d="M63 14.6C63 21.5588 57.3588 27.2 50.4 27.2C43.4412 27.2 37.8 21.5588 37.8 14.6C37.8 7.64121 43.4412 2 50.4 2C57.3588 2 63 7.64121 63 14.6ZM59.7706 14.5471C59.7706 19.6931 55.599 23.8647 50.453 23.8647C45.307 23.8647 41.1353 19.6931 41.1353 14.5471C41.1353 9.40108 45.307 5.22942 50.453 5.22942C55.599 5.22942 59.7706 9.40108 59.7706 14.5471Z" fill="#BC0000"/>
<path fill-rule="evenodd" clip-rule="evenodd" d="M33.451 13.5503C34.7526 12.3352 35.5689 10.5877 35.5689 8.64557C35.5689 4.97532 32.6535 2 29.0571 2C25.4607 2 22.5452 4.97532 22.5452 8.64557C22.5452 10.5877 23.3615 12.3353 24.6632 13.5504C22.8063 14.9235 21.6 17.1444 21.6 19.6507C21.6 23.8201 24.9387 27.2 29.0571 27.2C33.1756 27.2 36.5143 23.8201 36.5143 19.6507C36.5143 17.1444 35.3079 14.9234 33.451 13.5503ZM29.0571 12.0481C30.9133 12.0481 32.418 10.5247 32.418 8.64558C32.418 6.76641 30.9133 5.24305 29.0571 5.24305C27.2008 5.24305 25.6961 6.76641 25.6961 8.64558C25.6961 10.5247 27.2008 12.0481 29.0571 12.0481ZM29.0571 24.0101C31.4354 24.0101 33.3634 22.0583 33.3634 19.6506C33.3634 17.243 31.4354 15.2911 29.0571 15.2911C26.6788 15.2911 24.7509 17.243 24.7509 19.6506C24.7509 22.0583 26.6788 24.0101 29.0571 24.0101Z" fill="#BC0000"/>
<path d="M18.2196 7.11067L20.5714 4.90867C18.3965 3.09236 15.6005 2 12.5504 2C5.61899 2 0 7.64121 0 14.6C0 21.5588 5.61899 27.2 12.5504 27.2C15.4895 27.2 18.1927 26.1857 20.3316 24.4867L18.0937 22.077C16.5537 23.2012 14.6559 23.8647 12.6031 23.8647C7.45575 23.8647 3.28299 19.6931 3.28299 14.5471C3.28299 9.40107 7.45575 5.22941 12.6031 5.22941C14.7122 5.22941 16.6577 5.92982 18.2196 7.11067Z" fill="#1D1D1D"/>
</svg>
